<?xml version="1.0" encoding="UTF-8"?>
<svg width="1024" height="1024" viewBox="0 0 1024 1024" fill="none" xmlns="http://www.w3.org/2000/svg">
  <!-- Background Gradient -->
  <defs>
    <linearGradient id="bgGrad" x1="0%" y1="0%" x2="100%" y2="100%">
      <stop offset="0%" style="stop-color:#007AFF;stop-opacity:1" />
      <stop offset="50%" style="stop-color:#5856D6;stop-opacity:1" />
      <stop offset="100%" style="stop-color:#AF52DE;stop-opacity:1" />
    </linearGradient>
    
    <filter id="innerShadow">
      <feGaussianBlur in="SourceAlpha" stdDeviation="4"/>
      <feOffset dx="0" dy="2"/>
      <feComposite operator="out" in2="SourceAlpha"/>
      <feColorMatrix values="0 0 0 0 0 0 0 0 0 0 0 0 0 0 0 0 0 0 0.25 0"/>
      <feBlend mode="normal" in2="SourceGraphic"/>
    </filter>
    
    <filter id="glow">
      <feGaussianBlur stdDeviation="12" result="coloredBlur"/>
      <feMerge>
        <feMergeNode in="coloredBlur"/>
        <feMergeNode in="SourceGraphic"/>
      </feMerge>
    </filter>
  </defs>
  
  <!-- Background -->
  <rect width="1024" height="1024" rx="234" fill="url(#bgGrad)"/>
  
  <!-- Center Memory Chip Symbol -->
  <g transform="translate(512, 512)">
    <!-- Outer Ring -->
    <circle cx="0" cy="0" r="340" fill="none" stroke="white" stroke-width="40" opacity="0.3"/>
    
    <!-- Memory Segments (Fragmented) -->
    <g id="fragmented" opacity="0.8">
      <!-- Top segments -->
      <path d="M -240 -240 A 340 340 0 0 1 -120 -319 L -60 -160 A 170 170 0 0 0 -120 -120 Z" fill="#FF3B30"/>
      <path d="M -80 -330 A 340 340 0 0 1 80 -330 L 40 -165 A 170 170 0 0 0 -40 -165 Z" fill="#FF9500"/>
      <path d="M 120 -319 A 340 340 0 0 1 240 -240 L 120 -120 A 170 170 0 0 0 60 -160 Z" fill="#FFCC00"/>
      
      <!-- Right segments -->
      <path d="M 240 -200 A 340 340 0 0 1 340 0 L 170 0 A 170 170 0 0 0 120 -100 Z" fill="#34C759"/>
      <path d="M 340 40 A 340 340 0 0 1 240 240 L 120 120 A 170 170 0 0 0 170 40 Z" fill="#007AFF"/>
      
      <!-- Bottom segments -->
      <path d="M 200 240 A 340 340 0 0 1 0 340 L 0 170 A 170 170 0 0 0 100 120 Z" fill="#5856D6"/>
      <path d="M -40 340 A 340 340 0 0 1 -240 240 L -120 120 A 170 170 0 0 0 -40 170 Z" fill="#AF52DE"/>
      
      <!-- Left segment -->
      <path d="M -240 200 A 340 340 0 0 1 -240 -200 L -120 -100 A 170 170 0 0 0 -120 100 Z" fill="#FF3B30"/>
    </g>
    
    <!-- Center Circle (CPU/Processing Core) -->
    <circle cx="0" cy="0" r="140" fill="white" filter="url(#glow)"/>
    <circle cx="0" cy="0" r="120" fill="white" filter="url(#innerShadow)"/>
    
    <!-- Optimization Symbol (Checkmark) -->
    <path d="M -50 0 L -20 30 L 50 -40" 
          stroke="url(#bgGrad)" 
          stroke-width="24" 
          stroke-linecap="round" 
          stroke-linejoin="round" 
          fill="none"/>
  </g>
  
  <!-- Subtle Grid Pattern -->
  <g opacity="0.1">
    <line x1="256" y1="0" x2="256" y2="1024" stroke="white" stroke-width="2"/>
    <line x1="512" y1="0" x2="512" y2="1024" stroke="white" stroke-width="2"/>
    <line x1="768" y1="0" x2="768" y2="1024" stroke="white" stroke-width="2"/>
    <line x1="0" y1="256" x2="1024" y2="256" stroke="white" stroke-width="2"/>
    <line x1="0" y1="512" x2="1024" y2="512" stroke="white" stroke-width="2"/>
    <line x1="0" y1="768" x2="1024" y2="768" stroke="white" stroke-width="2"/>
  </g>
</svg>
